<?xml version="1.0" encoding="utf-8"?>
<!-- Generator: Adobe Illustrator 16.2.1, SVG Export Plug-In . SVG Version: 6.00 Build 0)  -->
<svg version="1.2" baseProfile="tiny" id="Layer_1" xmlns="http://www.w3.org/2000/svg" xmlns:xlink="http://www.w3.org/1999/xlink"
	 x="0px" y="0px" width="63.538px" height="27px" viewBox="0 0 63.538 27" xml:space="preserve">
<ellipse fill="#FFFFFF" cx="49.383" cy="13.486" rx="4.779" ry="4.787"/>
<g>
	<path fill="#FFFFFF" d="M49.441,0.938c-5.479,0-10.136,3.521-11.838,8.427c0.065-0.48,0.095-1.006,0.095-1.583
		c0-1.816-1.041-3.788-2.531-4.858c-1.394-1.006-2.801-1.619-4.485-1.619H19.828V26.02H30c2.009,0,3.73-0.738,5.447-1.972
		c1.588-1.136,2.602-3.156,2.602-5.069c0-0.09-0.001-0.178-0.002-0.267c1.979,4.32,6.336,7.321,11.394,7.321
		c6.92,0,12.53-5.618,12.53-12.547C61.971,6.557,56.361,0.938,49.441,0.938z M26.166,6.661h2.653c1.294,0,2.653,0.227,2.653,1.879
		c0.094,1.491-0.797,2.375-2.585,2.375l-2.721,0.011V6.661z M31.088,19.953c-0.552,0.454-1.298,0.423-1.979,0.423h-2.953v-4.538
		h2.693c1.63,0,3.026,0.424,3.097,2.328C31.946,18.784,31.575,19.596,31.088,19.953z M37.061,15.189
		c-0.487-0.644-1.193-1.252-2.215-1.841c1.155-0.598,1.896-1.33,2.339-2.307c-0.156,0.792-0.238,1.61-0.238,2.448
		C36.946,14.066,36.985,14.634,37.061,15.189z M49.383,20.014c-3.599,0-6.517-2.923-6.517-6.527c0-3.605,2.917-6.528,6.517-6.528
		s6.517,2.923,6.517,6.528C55.899,17.091,52.982,20.014,49.383,20.014z"/>
	<polygon fill="#FFFFFF" points="12.072,10.375 6.951,10.375 6.951,1.26 0.635,1.26 0.635,26.062 6.92,26.062 6.92,16.381
		12.041,16.381 12.041,26.062 18.44,26.062 18.44,1.26 12.072,1.26 	"/>
</g>
<g>
	<path fill="#FFFFFF" d="M60.812,0.983c0.688,0,1.237,0.56,1.237,1.26c0,0.711-0.548,1.265-1.243,1.265
		c-0.689,0-1.249-0.554-1.249-1.265c0-0.7,0.56-1.26,1.249-1.26H60.812z M60.806,1.18c-0.554,0-1.008,0.476-1.008,1.063
		c0,0.599,0.454,1.069,1.014,1.069c0.56,0.005,1.007-0.471,1.007-1.063c0-0.594-0.448-1.069-1.007-1.069H60.806z M60.57,2.977
		h-0.224V1.571c0.118-0.017,0.229-0.033,0.397-0.033c0.212,0,0.353,0.044,0.437,0.105s0.128,0.157,0.128,0.291
		c0,0.186-0.123,0.297-0.274,0.342v0.012c0.123,0.022,0.208,0.134,0.235,0.341c0.034,0.219,0.067,0.303,0.09,0.348h-0.235
		c-0.033-0.045-0.067-0.174-0.095-0.358c-0.034-0.18-0.123-0.246-0.302-0.246H60.57V2.977z M60.57,2.198h0.163
		c0.184,0,0.341-0.067,0.341-0.24c0-0.124-0.089-0.247-0.341-0.247c-0.073,0-0.124,0.006-0.163,0.012V2.198z"/>
</g>
</svg>
